<?xml version="1.0" encoding="UTF-8"?>
<!-- vim: tabstop=4 softtabstop=0 expandtab shiftwidth=4 smarttab
-->
<!-- Copyright 2011-2014 TIBCO Software Inc. All rights reserved. -->
<!-- $RCSfile: Tibco.svg,v $ -->
<!-- $Revision: 1.1 $ $Date: 2015/04/20 15:36:20 $ -->
<!DOCTYPE svg PUBLIC "-//W3C//DTD SVG 1.1//EN" "http://www.w3.org/Graphics/SVG/1.1/DTD/svg11.dtd">
<svg version="1.1" xmlns="http://www.w3.org/2000/svg" xmlns:xlink="http://www.w3.org/1999/xlink" x="0px" y="0px" width="242.5" height="242.5" viewBox="0, 0, 242.5, 242.5">
    <g id="Background">
        <rect x="0" y="0" width="242.5" height="242.5" fill="#000000" fill-opacity="0"/>
    </g>
    <g id="Layer 1">
        <path d="M3.017,59.774 C81.873,59.766 160.728,59.766 239.584,59.774 C239.607,88.588 239.614,117.403 239.584,146.218 C160.728,146.225 81.873,146.225 3.017,146.218 C2.994,117.403 2.994,88.588 3.017,59.774 M137.879,83.004 C129.354,89.823 127.373,102.219 130.428,112.245 C132.264,118.287 136.706,123.529 142.527,126.051 C150.633,129.609 160.332,128.618 167.936,124.26 C167.547,122.119 167.197,119.971 166.877,117.822 C162.085,121.19 156.096,123.125 150.23,122.188 C145.673,121.586 141.407,118.973 138.923,115.087 C135.609,110.028 135.114,103.628 136.096,97.792 C137.049,92.489 140.355,87.43 145.414,85.267 C152.172,82.341 160.21,83.689 166.237,87.72 C166.93,85.762 167.616,83.811 168.302,81.861 C159.052,76.688 146.435,76.154 137.879,83.004 M185.406,79.545 C179.539,81.861 174.839,86.775 172.561,92.626 C170.366,98.051 170.199,104.1 171.303,109.799 C185.398,103.78 197.139,92.786 205.108,79.789 C198.861,77.351 191.684,77 185.406,79.545 M23.817,79.095 C23.809,81.114 23.809,83.133 23.817,85.152 C29.432,85.152 35.039,85.145 40.655,85.16 C40.677,99.118 40.647,113.083 40.67,127.049 C42.795,127.049 44.929,127.049 47.062,127.049 C47.077,113.083 47.047,99.125 47.07,85.16 C52.685,85.137 58.292,85.16 63.907,85.152 C63.907,83.126 63.907,81.107 63.9,79.088 C50.536,79.088 37.173,79.08 23.817,79.095 M71.671,79.095 C71.663,95.08 71.663,111.064 71.679,127.049 C73.797,127.049 75.915,127.049 78.033,127.041 C78.033,111.057 78.04,95.08 78.033,79.095 C75.907,79.088 73.789,79.088 71.671,79.095 M89.461,79.095 C89.461,95.08 89.454,111.064 89.469,127.049 C95.648,127.011 101.834,127.148 108.013,126.972 C112.866,126.729 118.23,125.38 121.278,121.289 C124.325,116.984 124.66,110.409 120.965,106.371 C119.16,104.26 116.516,103.194 113.948,102.341 C115.891,101.403 117.903,100.443 119.381,98.821 C123.723,94.226 122.687,85.945 117.621,82.288 C114.284,79.85 110.032,79.171 106.002,79.11 C100.486,79.057 94.977,79.103 89.461,79.095 M172.896,114.66 C173.856,116.474 174.953,118.211 176.149,119.872 C189.886,110.127 200.689,96.489 207.874,81.305 C207.333,81.008 206.259,80.421 205.726,80.131 C198.13,94.272 187.029,106.828 172.896,114.66 M208.476,81.64 C202.206,97.464 192.819,112.093 180.499,123.894 C189.779,129.982 203.31,129.372 211.318,121.403 C222.083,110.828 221.291,90.28 208.476,81.64 z" fill="#4985D8"/>
        <path d="M137.879,83.004 C146.435,76.154 159.052,76.688 168.302,81.861 C167.616,83.811 166.93,85.762 166.237,87.72 C160.21,83.689 152.172,82.341 145.414,85.267 C140.355,87.43 137.049,92.489 136.096,97.792 C135.114,103.628 135.609,110.028 138.923,115.087 C141.407,118.973 145.673,121.586 150.23,122.188 C156.096,123.125 162.085,121.19 166.877,117.822 C167.197,119.971 167.547,122.119 167.936,124.26 C160.332,128.618 150.633,129.609 142.527,126.051 C136.706,123.529 132.264,118.287 130.428,112.245 C127.373,102.219 129.354,89.823 137.879,83.004 z" fill="#FFFFFF"/>
        <path d="M185.406,79.545 C191.684,77 198.861,77.351 205.108,79.789 C197.139,92.786 185.398,103.78 171.303,109.799 C170.199,104.1 170.366,98.051 172.561,92.626 C174.839,86.775 179.539,81.861 185.406,79.545 z" fill="#FFFFFF"/>
        <path d="M23.817,79.095 C37.173,79.08 50.536,79.088 63.9,79.088 C63.907,81.107 63.907,83.126 63.907,85.152 C58.292,85.16 52.685,85.137 47.07,85.16 C47.047,99.125 47.077,113.083 47.062,127.049 C44.929,127.049 42.795,127.049 40.67,127.049 C40.647,113.083 40.677,99.118 40.655,85.16 C35.039,85.145 29.432,85.152 23.817,85.152 C23.809,83.133 23.809,81.114 23.817,79.095 z" fill="#FFFFFF"/>
        <path d="M71.671,79.095 C73.789,79.088 75.907,79.088 78.033,79.095 C78.04,95.08 78.033,111.057 78.033,127.041 C75.915,127.049 73.797,127.049 71.679,127.049 C71.663,111.064 71.663,95.08 71.671,79.095 z" fill="#FFFFFF"/>
        <path d="M89.461,79.095 C94.977,79.103 100.486,79.057 106.002,79.11 C110.032,79.171 114.284,79.85 117.621,82.288 C122.687,85.945 123.723,94.226 119.381,98.821 C117.903,100.443 115.891,101.403 113.948,102.341 C116.516,103.194 119.16,104.26 120.965,106.371 C124.66,110.409 124.325,116.984 121.278,121.289 C118.23,125.38 112.866,126.729 108.013,126.972 C101.834,127.148 95.648,127.011 89.469,127.049 C89.454,111.064 89.461,95.08 89.461,79.095 M95.96,85 C95.945,90.036 95.952,95.08 95.96,100.116 C99.861,100.062 103.785,100.299 107.678,99.925 C110.878,99.605 114.383,97.845 115.297,94.524 C116.47,91.095 114.649,86.935 111.099,85.861 C106.223,84.299 100.996,85.251 95.96,85 M95.96,106.028 C95.952,111.064 95.945,116.1 95.96,121.136 C100.067,121.091 104.173,121.243 108.272,121.068 C110.977,120.854 113.964,120.222 115.762,118.02 C117.529,115.674 117.636,112.177 116.066,109.708 C114.352,107.262 111.221,106.455 108.402,106.173 C104.265,105.868 100.105,106.074 95.96,106.028 z" fill="#FFFFFF"/>
        <path d="M172.896,114.66 C187.029,106.828 198.13,94.272 205.726,80.131 C206.259,80.421 207.333,81.008 207.874,81.305 C200.69,96.489 189.886,110.127 176.149,119.872 C174.953,118.211 173.856,116.474 172.896,114.66 z" fill="#FFFFFF"/>
        <path d="M208.476,81.64 C221.291,90.28 222.083,110.828 211.318,121.403 C203.31,129.372 189.779,129.982 180.499,123.894 C192.819,112.093 202.206,97.464 208.476,81.64 z" fill="#FFFFFF"/>
        <path d="M95.96,85 C100.996,85.251 106.223,84.299 111.099,85.861 C114.649,86.935 116.47,91.095 115.297,94.524 C114.383,97.845 110.878,99.605 107.678,99.925 C103.785,100.299 99.861,100.062 95.96,100.116 C95.952,95.08 95.945,90.036 95.96,85 z" fill="#4985D8"/>
        <path d="M95.96,106.028 C100.105,106.074 104.265,105.868 108.402,106.173 C111.221,106.455 114.352,107.262 116.066,109.708 C117.636,112.177 117.529,115.674 115.762,118.02 C113.964,120.222 110.977,120.854 108.272,121.068 C104.173,121.243 100.067,121.091 95.96,121.136 C95.945,116.1 95.952,111.064 95.96,106.028 z" fill="#4985D8"/>
    </g>
    <defs/>
</svg>
