<svg width="178" height="48" viewBox="0 0 178 48" fill="none" xmlns="http://www.w3.org/2000/svg">
<path fill-rule="evenodd" clip-rule="evenodd" d="M110.94 4.5206C115.581 4.5206 120.548 5.8286 123.882 7.9216L122.117 12.9536C118.522 10.6006 115.188 9.4896 110.94 9.4896C102.05 9.4896 96.1012 15.6346 96.1012 25.7666C96.1012 35.8966 102.115 42.3686 111.071 42.3686C115.45 42.3686 119.765 40.6036 122.64 38.3816L123.554 43.9376C120.222 46.0296 115.515 47.3366 110.94 47.3366C98.9772 47.3366 90.4792 39.0356 90.4792 26.0266C90.4792 13.0186 99.0432 4.5206 110.94 4.5206ZM158.003 7.6909C163.437 11.2519 166.786 17.5239 166.786 25.6119C166.786 37.8169 158.304 47.1509 146.293 47.1509C141.652 47.1509 137.528 45.8849 134.215 43.5849C144.023 34.1529 151.701 23.1859 158.003 7.6909ZM35.121 5.5021V10.7321H20.805V46.3561H15.315V10.7321H1V5.5021H35.121ZM47.147 5.5025V46.3565H41.656V5.5025H47.147ZM70.3364 5.5027C80.2084 5.5027 84.5864 9.9467 84.5864 16.3527C84.5864 20.5367 82.1684 23.6087 77.5924 25.3087C83.0184 26.6807 85.8934 30.2117 85.8934 34.7877C85.8934 41.7157 81.2534 46.3557 70.7294 46.3557H56.8054V5.5027H70.3364ZM70.4024 28.4457H62.3624V41.2587H71.2524C77.3314 41.2587 80.3384 39.0997 80.3384 34.8517C80.3384 30.1447 76.1554 28.4457 70.4024 28.4457ZM155.652 6.3838C156.306 6.6898 156.936 7.0308 157.542 7.4038C151.815 19.9408 141.593 32.6348 130.554 40.2248C129.447 38.8928 128.511 37.3908 127.771 35.7298C140.608 28.8008 150.312 16.6228 155.652 6.3838ZM146.293 4.3995C149.537 4.3995 152.527 5.0165 155.167 6.1655C149.632 15.6375 138.717 26.6765 126.431 31.6835C126.019 29.8725 125.8 27.9325 125.8 25.8735C125.8 13.6685 134.284 4.3995 146.293 4.3995ZM70.7944 10.6007H62.3624V23.4127H69.9444C75.8274 23.4127 79.0304 20.7987 79.0304 16.8107C79.0304 12.8887 76.1554 10.6007 70.7944 10.6007ZM172.062 1C174.958 1 177.221 3.2777 177.333 6.06186L177.337 6.306C177.337 9.187 175.003 11.613 172.062 11.613C169.165 11.613 166.902 9.3353 166.79 6.55206L166.786 6.306C166.786 3.426 169.12 1 172.062 1ZM172.062 1.577C169.496 1.577 167.505 3.61205 167.397 6.09235L167.392 6.337C167.392 8.914 169.394 11.037 172.062 11.037C174.627 11.037 176.618 9.00195 176.726 6.51981L176.731 6.277C176.731 3.699 174.73 1.577 172.062 1.577ZM172.425 3.517C173.608 3.517 174.487 4.093 174.487 5.214C174.487 6.094 173.972 6.64 173.243 6.853L174.669 8.884H173.427L172.153 7.035H171.03V8.884H169.999V3.517H172.425ZM172.335 4.427H171.03V6.185H172.335C173.032 6.185 173.427 5.822 173.427 5.306C173.427 4.73 173.032 4.427 172.335 4.427Z" fill="#318DDE"/>
</svg>
