<svg data-name="Spotfire Icon" xmlns="http://www.w3.org/2000/svg" viewBox="0 0 16 16">
<path fill="#333c66" d="M8 0C3.58 0 0 3.58 0 8s3.58 8 8 8 8-3.58 8-8-3.58-8-8-8zm0 14.4c-3.53 0-6.4-2.87-6.4-6.4S4.47 1.6 8 1.6s6.4 2.87 6.4 6.4-2.87 6.4-6.4 6.4z"></path>
<path fill="#333c66" d="M8 2.6c-3.04 0-5.5 2.46-5.5 5.49 0 2.55 1.74 4.69 4.1 5.31v-.82s0-.39-.27-.77c-.13-.19-.54-.52-.58-.54-.09-.06-.13-.11-.13-.11A3.855 3.855 0 0 1 4.1 8.1c0-2.15 1.75-3.89 3.9-3.89s3.9 1.75 3.9 3.89c0 1.25-.6 2.35-1.52 3.06l-.03.03s-.17.13-.22.17c-.16.13-.32.28-.46.46-.28.35-.27.77-.27.77v.82c2.36-.62 4.1-2.76 4.1-5.31 0-3.03-2.46-5.49-5.5-5.49z"></path>
<path fill="#e94165" d="M10.15 8c0-1.19-.96-2.15-2.15-2.15S5.85 6.81 5.85 8s.96 2.15 2.15 2.15 2.15-.96 2.15-2.15z"></path>
</svg>